<svg version="1.1" xmlns="http://www.w3.org/2000/svg" viewBox="0 0 918.7209033203112 1062.7079772949219" width="1837.4418066406224" height="2125.4159545898438" filter="invert(93%) hue-rotate(180deg)">
  <!-- svg-source:excalidraw -->
  
  <defs>
    <style class="style-fonts">
      @font-face {
        font-family: "Virgil";
        src: url("https://excalidraw.com/Virgil.woff2");
      }
      @font-face {
        font-family: "Cascadia";
        src: url("https://excalidraw.com/Cascadia.woff2");
      }
      @font-face {
        font-family: "Assistant";
        src: url("https://excalidraw.com/Assistant-Regular.woff2");
      }
    </style>
    
  </defs>
  <rect x="0" y="0" width="918.7209033203112" height="1062.7079772949219" fill="#ffffff"></rect><g stroke-linecap="round" transform="translate(241.75209250450143 130.29202270507812) rotate(0 189.38262588203474 104.75576223822858)"><path d="M0 0 C135.75 -2.37, 269.68 -2.57, 378.77 0 M0 0 C105.7 0.08, 210.27 0.17, 378.77 0 M378.77 0 C376.78 76.12, 376.53 152.13, 378.77 209.51 M378.77 0 C378.05 64.52, 376.99 127.08, 378.77 209.51 M378.77 209.51 C285.37 209.54, 193.64 209.36, 0 209.51 M378.77 209.51 C235.99 209.33, 93.01 209.48, 0 209.51 M0 209.51 C-0.09 144.99, -0.52 81.53, 0 0 M0 209.51 C-0.82 164.65, -0.68 121.17, 0 0" stroke="#000000" stroke-width="1" fill="none"></path></g><g stroke-linecap="round"><g transform="translate(245.15293156582106 184.3562234420416) rotate(0 188.86544364765484 -1.2085700683097116)"><path d="M-0.19 -0.92 C62.51 -1.44, 314.22 -2.42, 377.34 -2.68 M-1.75 1.22 C60.66 0.84, 312.87 -0.87, 376.19 -1.28" stroke="#000000" stroke-width="1" fill="none"></path></g></g><mask></mask><g transform="translate(254.71953766735464 140.65282972866459) rotate(0 60.12035409575685 17.52753956660615)"><text x="0" y="0" font-family="Virgil, Segoe UI Emoji" font-size="28.044063306569843px" fill="#1e1e1e" text-anchor="start" style="white-space: pre;" direction="ltr" dominant-baseline="text-before-edge">requests</text></g><g stroke-linecap="round" transform="translate(240.24632251861976 360.2920227050781) rotate(0 192.11843640062034 106.26905795307579)"><path d="M0 0 C94.63 0.17, 188.11 1.5, 384.24 0 M0 0 C85.15 0.24, 169.66 0.42, 384.24 0 M384.24 0 C385.34 72, 382.34 144.21, 384.24 212.54 M384.24 0 C384.85 46.91, 384.4 94.04, 384.24 212.54 M384.24 212.54 C298.82 213.11, 211.48 212.72, 0 212.54 M384.24 212.54 C264 210.85, 142.4 211.16, 0 212.54 M0 212.54 C-2.66 151.05, -0.11 87.77, 0 0 M0 212.54 C-0.35 150.11, -0.18 87.11, 0 0" stroke="#000000" stroke-width="1" fill="none"></path></g><g stroke-linecap="round"><g transform="translate(243.69628990537376 415.13723177565316) rotate(0 191.5937829814352 -1.2260290019892466)"><path d="M-0.65 0.14 C63.4 -0.54, 319.72 -2.92, 383.88 -3.41 M1.21 -0.83 C65.21 -1.44, 319.48 -2.24, 383.3 -2.37" stroke="#000000" stroke-width="1" fill="none"></path></g></g><mask></mask><g transform="translate(252.49226976716773 193.9888037524072) rotate(0 12.451361065339938 11.935750346191725)"><text x="0" y="0" font-family="Virgil, Segoe UI Emoji" font-size="19.097200553906756px" fill="#1e1e1e" text-anchor="start" style="white-space: pre;" direction="ltr" dominant-baseline="text-before-edge">*id</text></g><g transform="translate(253.44712979486303 217.86030444479064) rotate(0 68.38700495610271 11.935750346191725)"><text x="0" y="0" font-family="Virgil, Segoe UI Emoji" font-size="19.097200553906752px" fill="#1e1e1e" text-anchor="start" style="white-space: pre;" direction="ltr" dominant-baseline="text-before-edge">*request_type</text></g><g transform="translate(251.53740973947242 243.64152519256476) rotate(0 25.54247660083479 11.935750346191725)"><text x="0" y="0" font-family="Virgil, Segoe UI Emoji" font-size="19.097200553906756px" fill="#1e1e1e" text-anchor="start" style="white-space: pre;" direction="ltr" dominant-baseline="text-before-edge">*title</text></g><g transform="translate(252.49226976716773 270.37760596803423) rotate(0 39.94176028187758 11.935750346191725)"><text x="0" y="0" font-family="Virgil, Segoe UI Emoji" font-size="19.097200553906756px" fill="#1e1e1e" text-anchor="start" style="white-space: pre;" direction="ltr" dominant-baseline="text-before-edge">*content</text></g><g transform="translate(250.8563367829147 381.7099933618057) rotate(0 102.54658508300781 12.33300687446922)"><text x="0" y="0" font-family="Virgil, Segoe UI Emoji" font-size="19.73281099915077px" fill="#1e1e1e" text-anchor="start" style="white-space: pre;" direction="ltr" dominant-baseline="text-before-edge">request_types[enum]</text></g><g transform="translate(250.82961788283 428.1889748101496) rotate(0 12.86395263671875 12.33300687446922)"><text x="0" y="0" font-family="Virgil, Segoe UI Emoji" font-size="19.73281099915077px" fill="#1e1e1e" text-anchor="start" style="white-space: pre;" direction="ltr" dominant-baseline="text-before-edge">*id</text></g><g transform="translate(252.49226976716773 298.068546771199) rotate(0 53.12836764814506 11.935750346191725)"><text x="0" y="0" font-family="Virgil, Segoe UI Emoji" font-size="19.097200553906756px" fill="#1e1e1e" text-anchor="start" style="white-space: pre;" direction="ltr" dominant-baseline="text-before-edge">*createdAt</text></g><g transform="translate(250.82961788283 472.89506690921553) rotate(0 25.550331115722656 12.33300687446922)"><text x="0" y="0" font-family="Virgil, Segoe UI Emoji" font-size="19.73281099915077px" fill="#1e1e1e" text-anchor="start" style="white-space: pre;" direction="ltr" dominant-baseline="text-before-edge">*type</text></g><g stroke-linecap="round" transform="translate(241.3665667057037 597.2920227050781) rotate(0 192.97278260272458 106.7416339731829)"><path d="M0 0 C98.92 -0.49, 196.29 -1.77, 385.95 0 M0 0 C95.76 0.54, 192.17 1.1, 385.95 0 M385.95 0 C386.63 74.83, 384.14 148.31, 385.95 213.48 M385.95 0 C386.13 51.45, 386.54 102.82, 385.95 213.48 M385.95 213.48 C271.04 216.47, 154.47 216.6, 0 213.48 M385.95 213.48 C281.95 214.85, 176.27 215, 0 213.48 M0 213.48 C-1.36 155.24, -0.76 100.15, 0 0 M0 213.48 C-2.17 134.47, -1.46 56.65, 0 0" stroke="#000000" stroke-width="1" fill="none"></path></g><g stroke-linecap="round"><g transform="translate(244.83187601689497 652.381127140153) rotate(0 192.44579606203126 -1.2314811243422241)"><path d="M0.22 -0.4 C64.12 -1.01, 319.85 -2.66, 383.8 -3.07 M-1.13 -1.65 C63.1 -2.16, 321.36 -1.83, 385.95 -1.85" stroke="#000000" stroke-width="1" fill="none"></path></g></g><mask></mask><g transform="translate(253 611) rotate(0 46.669944763183594 12.5)"><text x="0" y="0" font-family="Virgil, Segoe UI Emoji" font-size="20px" fill="#1e1e1e" text-anchor="start" style="white-space: pre;" direction="ltr" dominant-baseline="text-before-edge">responses</text></g><g transform="translate(251 656) rotate(0 13.039985656738281 12.5)"><text x="0" y="0" font-family="Virgil, Segoe UI Emoji" font-size="20px" fill="#1e1e1e" text-anchor="start" style="white-space: pre;" direction="ltr" dominant-baseline="text-before-edge">*id</text></g><g stroke-linecap="round" transform="translate(238.28531780365392 835.2920227050781) rotate(0 196.52763489628774 108.70797729492188)"><path d="M0 0 C94.99 -1.61, 189.55 -2.07, 393.06 0 M0 0 C78.84 1.91, 157.74 1.55, 393.06 0 M393.06 0 C392.31 71.91, 393.24 140.87, 393.06 217.42 M393.06 0 C394.84 58.86, 394.91 118.69, 393.06 217.42 M393.06 217.42 C288.33 217.83, 183.43 218.63, 0 217.42 M393.06 217.42 C237.09 215.53, 80.7 214.69, 0 217.42 M0 217.42 C-0.25 173.44, -0.85 131.94, 0 0 M0 217.42 C0.36 168.13, 1.51 117.49, 0 0" stroke="#000000" stroke-width="1" fill="none"></path></g><g stroke-linecap="round"><g transform="translate(241.81446338536284 891.3959522704644) rotate(0 195.99094046162315 -1.2541668805421295)"><path d="M0.38 0.64 C65.52 -0.07, 326.6 -3.04, 391.89 -3.69 M-0.88 -0.08 C64.01 -0.73, 325.51 -2.39, 390.89 -2.78" stroke="#000000" stroke-width="1" fill="none"></path></g></g><mask></mask><g transform="translate(246.65541813604068 853.626061762348) rotate(0 38.616554260253906 15.581713489250376)"><text x="0" y="0" font-family="Virgil, Segoe UI Emoji" font-size="24.93074158280058px" fill="#1e1e1e" text-anchor="start" style="white-space: pre;" direction="ltr" dominant-baseline="text-before-edge">admins</text></g><g transform="translate(245 896) rotate(0 13.039985656738281 12.5)"><text x="0" y="0" font-family="Virgil, Segoe UI Emoji" font-size="20px" fill="#1e1e1e" text-anchor="start" style="white-space: pre;" direction="ltr" dominant-baseline="text-before-edge">*id</text></g><g transform="translate(247 920) rotate(0 49.179954528808594 12.5)"><text x="0" y="0" font-family="Virgil, Segoe UI Emoji" font-size="20px" fill="#1e1e1e" text-anchor="start" style="white-space: pre;" direction="ltr" dominant-baseline="text-before-edge">*username</text></g><g transform="translate(247 948) rotate(0 49.239952087402344 12.5)"><text x="0" y="0" font-family="Virgil, Segoe UI Emoji" font-size="20px" fill="#1e1e1e" text-anchor="start" style="white-space: pre;" direction="ltr" dominant-baseline="text-before-edge">*password</text></g><g transform="translate(250 727) rotate(0 46.39994812011719 12.5)"><text x="0" y="0" font-family="Virgil, Segoe UI Emoji" font-size="20px" fill="#1e1e1e" text-anchor="start" style="white-space: pre;" direction="ltr" dominant-baseline="text-before-edge">*response</text></g><g transform="translate(250 703) rotate(0 46.84996032714844 12.5)"><text x="0" y="0" font-family="Virgil, Segoe UI Emoji" font-size="20px" fill="#1e1e1e" text-anchor="start" style="white-space: pre;" direction="ltr" dominant-baseline="text-before-edge">*admin_id</text></g><g transform="translate(251 755) rotate(0 55.63995361328125 12.5)"><text x="0" y="0" font-family="Virgil, Segoe UI Emoji" font-size="20px" fill="#1e1e1e" text-anchor="start" style="white-space: pre;" direction="ltr" dominant-baseline="text-before-edge">*createdAt</text></g><g transform="translate(250 679) rotate(0 58.75994110107422 12.5)"><text x="0" y="0" font-family="Virgil, Segoe UI Emoji" font-size="20px" fill="#1e1e1e" text-anchor="start" style="white-space: pre;" direction="ltr" dominant-baseline="text-before-edge">*request_id</text></g><g stroke-linecap="round"><g transform="translate(237 439) rotate(0 -11.5 -104.5)"><path d="M-0.91 -0.52 C-5.42 -0.44, -23.61 33.09, -27.86 -0.08 C-32.11 -33.25, -32.12 -164.63, -26.42 -199.53 C-20.72 -234.42, 1.03 -207.78, 6.34 -209.45 M0.81 1.83 C-3.69 2.15, -23.5 34.8, -28.21 1.42 C-32.91 -31.97, -33.23 -163.49, -27.41 -198.49 C-21.58 -233.49, 0.97 -206.76, 6.76 -208.58" stroke="#1e1e1e" stroke-width="2" fill="none"></path></g><g transform="translate(237 439) rotate(0 -11.5 -104.5)"><path d="M-9.99 -209.27 C-6.83 -207.39, -2.34 -209.41, 6.76 -208.58 M-9.99 -209.27 C-6.09 -209.4, -1.52 -209.66, 6.76 -208.58" stroke="#1e1e1e" stroke-width="2" fill="none"></path></g><g transform="translate(237 439) rotate(0 -11.5 -104.5)"><path d="M-5.63 -219.88 C-3.53 -215.57, -0.05 -215.14, 6.76 -208.58 M-5.63 -219.88 C-2.81 -217.31, 0.63 -214.85, 6.76 -208.58" stroke="#1e1e1e" stroke-width="2" fill="none"></path></g></g><mask></mask><g stroke-linecap="round"><g transform="translate(237 690) rotate(0 -35 -247)"><path d="M0.27 0.7 C-12.17 0.93, -62.23 84.46, -74.19 1.8 C-86.16 -80.85, -84.8 -414.46, -71.54 -495.24 C-58.28 -576.02, -7.32 -484.91, 5.35 -482.88 M-1.04 0.02 C-13.61 -0.12, -62.88 82.44, -74.72 0.1 C-86.56 -82.24, -85.48 -413.22, -72.07 -494.04 C-58.65 -574.87, -7.3 -486.82, 5.78 -484.85" stroke="#1e1e1e" stroke-width="2" fill="none"></path></g><g transform="translate(237 690) rotate(0 -35 -247)"><path d="M-17.38 -494.27 C-8.37 -489.8, -0.39 -487.2, 5.78 -484.85 M-17.38 -494.27 C-11.28 -491.1, -4.7 -489.5, 5.78 -484.85" stroke="#1e1e1e" stroke-width="2" fill="none"></path></g><g transform="translate(237 690) rotate(0 -35 -247)"><path d="M-5.91 -506.95 C-0.73 -498.18, 3.39 -491.31, 5.78 -484.85 M-5.91 -506.95 C-2.99 -500.12, 0.38 -494.97, 5.78 -484.85" stroke="#1e1e1e" stroke-width="2" fill="none"></path></g></g><mask></mask><g stroke-linecap="round"><g transform="translate(233 714) rotate(0 -25.5 97)"><path d="M-1.19 0.76 C-8.89 1.53, -37.37 -24.11, -45.86 4.24 C-54.35 32.59, -59.4 139.2, -52.11 170.84 C-44.81 202.48, -10.43 190.13, -2.09 194.08 M0.39 0.11 C-7.49 0.54, -38.37 -26.33, -46.73 2.24 C-55.1 30.81, -57.18 139.39, -49.79 171.55 C-42.41 203.72, -10.64 191.28, -2.42 195.23" stroke="#1e1e1e" stroke-width="2" fill="none"></path></g><g transform="translate(233 714) rotate(0 -25.5 97)"><path d="M-26.4 202.3 C-17.18 200.43, -10.1 196.01, -2.42 195.23 M-26.4 202.3 C-22.37 201.32, -16.8 199.1, -2.42 195.23" stroke="#1e1e1e" stroke-width="2" fill="none"></path></g><g transform="translate(233 714) rotate(0 -25.5 97)"><path d="M-25.34 185.23 C-16.52 189, -9.8 190.23, -2.42 195.23 M-25.34 185.23 C-21.67 187.73, -16.32 188.98, -2.42 195.23" stroke="#1e1e1e" stroke-width="2" fill="none"></path></g></g><mask></mask><g transform="translate(10 10) rotate(0 449.3604516601556 29)"><text x="0" y="0" font-family="Virgil, Segoe UI Emoji" font-size="46.399999999999984px" fill="#1e1e1e" text-anchor="start" style="white-space: pre;" direction="ltr" dominant-baseline="text-before-edge">Entity Relationship (ER) Diagram Model</text></g></svg>